# This file uses centimeters as units for non-parametric coordinates.
v 0.500000 -0.500000 -0.000000
v 0.475528 -0.500000 -0.154509
v 0.404509 -0.500000 -0.293893
v 0.293893 -0.500000 -0.404509
v 0.154508 -0.500000 -0.475528
v -0.000000 -0.500000 -0.500000
v -0.154509 -0.500000 -0.475528
v -0.293893 -0.500000 -0.404509
v -0.404509 -0.500000 -0.293893
v -0.475528 -0.500000 -0.154509
v -0.500000 -0.500000 -0.000000
v -0.475528 -0.500000 0.154509
v -0.404509 -0.500000 0.293893
v -0.293893 -0.500000 0.404509
v -0.154509 -0.500000 0.475528
v 0.000000 -0.500000 0.500000
v 0.154509 -0.500000 0.475529
v 0.293893 -0.500000 0.404509
v 0.404509 -0.500000 0.293893
v 0.475529 -0.500000 0.154509
v 0.500000 0.500000 0.000000
v 0.475528 0.500000 -0.154509
v 0.404509 0.500000 -0.293893
v 0.293893 0.500000 -0.404509
v 0.154508 0.500000 -0.475528
v -0.000000 0.500000 -0.500000
v -0.154509 0.500000 -0.475528
v -0.293893 0.500000 -0.404509
v -0.404509 0.500000 -0.293893
v -0.475528 0.500000 -0.154509
v -0.500000 0.500000 0.000000
v -0.475528 0.500000 0.154509
v -0.404509 0.500000 0.293893
v -0.293893 0.500000 0.404509
v -0.154509 0.500000 0.475528
v 0.000000 0.500000 0.500000
v 0.154509 0.500000 0.475529
v 0.293893 0.500000 0.404509
v 0.404509 0.500000 0.293893
v 0.475529 0.500000 0.154509
v 1.000000 0.500000 0.000000
v 0.951057 0.500000 -0.309017
v 0.809017 0.500000 -0.587785
v 0.587785 0.500000 -0.809017
v 0.309017 0.500000 -0.951057
v -0.000000 0.500000 -1.000000
v -0.309017 0.500000 -0.951057
v -0.587785 0.500000 -0.809017
v -0.809017 0.500000 -0.587785
v -0.951057 0.500000 -0.309017
v -1.000000 0.500000 0.000000
v -0.951057 0.500000 0.309017
v -0.809017 0.500000 0.587785
v -0.587785 0.500000 0.809017
v -0.309017 0.500000 0.951057
v 0.000000 0.500000 1.000000
v 0.309017 0.500000 0.951057
v 0.587786 0.500000 0.809017
v 0.809018 0.500000 0.587786
v 0.951057 0.500000 0.309017
v 1.000000 -0.500000 -0.000000
v 0.951057 -0.500000 -0.309017
v 0.809017 -0.500000 -0.587785
v 0.587785 -0.500000 -0.809017
v 0.309017 -0.500000 -0.951057
v -0.000000 -0.500000 -1.000000
v -0.309017 -0.500000 -0.951057
v -0.587785 -0.500000 -0.809017
v -0.809017 -0.500000 -0.587785
v -0.951057 -0.500000 -0.309017
v -1.000000 -0.500000 -0.000000
v -0.951057 -0.500000 0.309017
v -0.809017 -0.500000 0.587785
v -0.587785 -0.500000 0.809017
v -0.309017 -0.500000 0.951057
v 0.000000 -0.500000 1.000000
v 0.309017 -0.500000 0.951057
v 0.587786 -0.500000 0.809017
v 0.809018 -0.500000 0.587786
v 0.951057 -0.500000 0.309017
vt 0.000000 1.000000
vt 0.050000 1.000000
vt 0.100000 1.000000
vt 0.150000 1.000000
vt 0.200000 1.000000
vt 0.250000 1.000000
vt 0.300000 1.000000
vt 0.350000 1.000000
vt 0.400000 1.000000
vt 0.450000 1.000000
vt 0.500000 1.000000
vt 0.550000 1.000000
vt 0.600000 1.000000
vt 0.650000 1.000000
vt 0.700000 1.000000
vt 0.750000 1.000000
vt 0.800000 1.000000
vt 0.850000 1.000000
vt 0.900000 1.000000
vt 0.950000 1.000000
vt 1.000000 1.000000
vt 0.000000 0.750000
vt 0.050000 0.750000
vt 0.100000 0.750000
vt 0.150000 0.750000
vt 0.200000 0.750000
vt 0.250000 0.750000
vt 0.300000 0.750000
vt 0.350000 0.750000
vt 0.400000 0.750000
vt 0.450000 0.750000
vt 0.500000 0.750000
vt 0.550000 0.750000
vt 0.600000 0.750000
vt 0.650000 0.750000
vt 0.700000 0.750000
vt 0.750000 0.750000
vt 0.800000 0.750000
vt 0.850000 0.750000
vt 0.900000 0.750000
vt 0.950000 0.750000
vt 1.000000 0.750000
vt 0.000000 0.500000
vt 0.050000 0.500000
vt 0.100000 0.500000
vt 0.150000 0.500000
vt 0.200000 0.500000
vt 0.250000 0.500000
vt 0.300000 0.500000
vt 0.350000 0.500000
vt 0.400000 0.500000
vt 0.450000 0.500000
vt 0.500000 0.500000
vt 0.550000 0.500000
vt 0.600000 0.500000
vt 0.650000 0.500000
vt 0.700000 0.500000
vt 0.750000 0.500000
vt 0.800000 0.500000
vt 0.850000 0.500000
vt 0.900000 0.500000
vt 0.950000 0.500000
vt 1.000000 0.500000
vt 0.000000 0.250000
vt 0.050000 0.250000
vt 0.100000 0.250000
vt 0.150000 0.250000
vt 0.200000 0.250000
vt 0.250000 0.250000
vt 0.300000 0.250000
vt 0.350000 0.250000
vt 0.400000 0.250000
vt 0.450000 0.250000
vt 0.500000 0.250000
vt 0.550000 0.250000
vt 0.600000 0.250000
vt 0.650000 0.250000
vt 0.700000 0.250000
vt 0.750000 0.250000
vt 0.800000 0.250000
vt 0.850000 0.250000
vt 0.900000 0.250000
vt 0.950000 0.250000
vt 1.000000 0.250000
vt 0.000000 0.000000
vt 0.050000 0.000000
vt 0.100000 0.000000
vt 0.150000 0.000000
vt 0.200000 0.000000
vt 0.250000 0.000000
vt 0.300000 0.000000
vt 0.350000 0.000000
vt 0.400000 0.000000
vt 0.450000 0.000000
vt 0.500000 0.000000
vt 0.550000 0.000000
vt 0.600000 0.000000
vt 0.650000 0.000000
vt 0.700000 0.000000
vt 0.750000 0.000000
vt 0.800000 0.000000
vt 0.850000 0.000000
vt 0.900000 0.000000
vt 0.950000 0.000000
vt 1.000000 0.000000
vn 0.951057 0.000000 -0.309017
vn 0.951057 0.000000 -0.309017
vn 1.000000 0.000000 -0.000001
vn 1.000000 0.000000 -0.000001
vn 0.809017 0.000000 -0.587785
vn 0.809017 0.000000 -0.587785
vn 0.587785 0.000000 -0.809017
vn 0.587785 0.000000 -0.809017
vn 0.309017 0.000000 -0.951057
vn 0.309017 0.000000 -0.951057
vn 0.000000 0.000000 -1.000000
vn 0.000000 0.000000 -1.000000
vn -0.309017 0.000000 -0.951057
vn -0.309017 0.000000 -0.951057
vn -0.587785 0.000000 -0.809017
vn -0.587785 0.000000 -0.809017
vn -0.809017 0.000000 -0.587785
vn -0.809017 0.000000 -0.587785
vn -0.951057 0.000000 -0.309017
vn -0.951057 0.000000 -0.309017
vn -1.000000 0.000000 0.000000
vn -1.000000 0.000000 -0.000000
vn -0.951057 0.000000 0.309017
vn -0.951057 0.000000 0.309017
vn -0.809017 0.000000 0.587785
vn -0.809017 0.000000 0.587785
vn -0.587786 0.000000 0.809017
vn -0.587785 0.000000 0.809017
vn -0.309017 0.000000 0.951056
vn -0.309017 0.000000 0.951057
vn -0.000000 0.000000 1.000000
vn 0.000000 0.000000 1.000000
vn 0.309017 0.000000 0.951057
vn 0.309017 0.000000 0.951057
vn 0.587785 0.000000 0.809017
vn 0.587785 0.000000 0.809017
vn 0.809017 0.000000 0.587785
vn 0.809017 0.000000 0.587785
vn 0.951057 0.000000 0.309016
vn 0.951057 0.000000 0.309016
vn 0.000000 -1.000000 0.000000
vn 0.000000 -1.000000 0.000000
vn 0.000000 -1.000000 -0.000000
vn 0.000000 -1.000000 -0.000000
vn 0.000000 -1.000000 0.000000
vn 0.000000 -1.000000 0.000000
vn 0.000000 -1.000000 0.000000
vn 0.000000 -1.000000 0.000000
vn 0.000000 -1.000000 0.000000
vn 0.000000 -1.000000 0.000000
vn 0.000000 -1.000000 -0.000000
vn 0.000000 -1.000000 0.000000
vn 0.000000 -1.000000 -0.000000
vn 0.000000 -1.000000 -0.000000
vn 0.000000 -1.000000 0.000000
vn 0.000000 -1.000000 0.000000
vn 0.000000 -1.000000 0.000000
vn 0.000000 -1.000000 0.000000
vn 0.000000 -1.000000 -0.000000
vn 0.000000 -1.000000 0.000000
vn 0.000000 -1.000000 -0.000000
vn 0.000000 -1.000000 -0.000000
vn 0.000000 -1.000000 0.000000
vn 0.000000 -1.000000 0.000000
vn 0.000000 -1.000000 0.000000
vn 0.000000 -1.000000 0.000000
vn 0.000000 -1.000000 0.000000
vn 0.000000 -1.000000 0.000000
vn 0.000000 -1.000000 0.000000
vn 0.000000 -1.000000 0.000000
vn 0.000000 -1.000000 0.000000
vn 0.000000 -1.000000 0.000000
vn 0.000000 -1.000000 -0.000000
vn 0.000000 -1.000000 0.000000
vn 0.000000 -1.000000 -0.000000
vn 0.000000 -1.000000 -0.000000
vn 0.000000 -1.000000 0.000000
vn 0.000000 -1.000000 0.000000
vn 0.000000 -1.000000 -0.000000
vn 0.000000 -1.000000 0.000000
vn -0.951057 0.000000 0.309017
vn -0.951057 0.000000 0.309017
vn -1.000000 0.000000 0.000001
vn -1.000000 0.000000 0.000001
vn -0.809017 0.000000 0.587785
vn -0.809017 0.000000 0.587785
vn -0.587785 0.000000 0.809017
vn -0.587785 0.000000 0.809017
vn -0.309017 0.000000 0.951057
vn -0.309017 0.000000 0.951057
vn -0.000000 0.000000 1.000000
vn -0.000000 0.000000 1.000000
vn 0.309017 0.000000 0.951057
vn 0.309017 0.000000 0.951057
vn 0.587785 0.000000 0.809017
vn 0.587785 0.000000 0.809017
vn 0.809017 0.000000 0.587785
vn 0.809017 0.000000 0.587785
vn 0.951057 0.000000 0.309017
vn 0.951057 0.000000 0.309017
vn 1.000000 0.000000 -0.000000
vn 1.000000 0.000000 0.000000
vn 0.951057 0.000000 -0.309017
vn 0.951057 0.000000 -0.309017
vn 0.809017 0.000000 -0.587785
vn 0.809017 0.000000 -0.587785
vn 0.587786 0.000000 -0.809017
vn 0.587786 0.000000 -0.809017
vn 0.309017 0.000000 -0.951057
vn 0.309017 0.000000 -0.951056
vn 0.000000 0.000000 -1.000000
vn 0.000000 0.000000 -1.000000
vn -0.309017 0.000000 -0.951057
vn -0.309017 0.000000 -0.951057
vn -0.587785 0.000000 -0.809017
vn -0.587785 0.000000 -0.809017
vn -0.809017 0.000000 -0.587785
vn -0.809017 0.000000 -0.587785
vn -0.951057 0.000000 -0.309016
vn -0.951057 0.000000 -0.309016
vn 0.000000 1.000000 0.000000
vn 0.000000 1.000000 0.000000
vn 0.000000 1.000000 0.000000
vn 0.000000 1.000000 0.000000
vn 0.000000 1.000000 -0.000000
vn 0.000000 1.000000 -0.000000
vn 0.000000 1.000000 0.000000
vn 0.000000 1.000000 0.000000
vn 0.000000 1.000000 0.000000
vn 0.000000 1.000000 0.000000
vn 0.000000 1.000000 0.000000
vn 0.000000 1.000000 0.000000
vn 0.000000 1.000000 0.000000
vn 0.000000 1.000000 0.000000
vn 0.000000 1.000000 0.000000
vn 0.000000 1.000000 0.000000
vn 0.000000 1.000000 0.000000
vn 0.000000 1.000000 0.000000
vn 0.000000 1.000000 0.000000
vn 0.000000 1.000000 0.000000
vn 0.000000 1.000000 -0.000000
vn 0.000000 1.000000 0.000000
vn 0.000000 1.000000 -0.000000
vn 0.000000 1.000000 -0.000000
vn 0.000000 1.000000 0.000000
vn 0.000000 1.000000 0.000000
vn 0.000000 1.000000 0.000000
vn 0.000000 1.000000 0.000000
vn 0.000000 1.000000 0.000000
vn 0.000000 1.000000 0.000000
vn 0.000000 1.000000 0.000000
vn 0.000000 1.000000 0.000000
vn 0.000000 1.000000 0.000000
vn 0.000000 1.000000 0.000000
vn 0.000000 1.000000 0.000000
vn 0.000000 1.000000 0.000000
vn 0.000000 1.000000 0.000000
vn 0.000000 1.000000 0.000000
vn 0.000000 1.000000 0.000000
vn 0.000000 1.000000 0.000000
f 2/2/1 22/23/2 1/1/3
f 22/23/2 21/22/4 1/1/3
f 3/3/5 23/24/6 2/2/1
f 23/24/6 22/23/2 2/2/1
f 4/4/7 24/25/8 3/3/5
f 24/25/8 23/24/6 3/3/5
f 5/5/9 25/26/10 4/4/7
f 25/26/10 24/25/8 4/4/7
f 6/6/11 26/27/12 5/5/9
f 26/27/12 25/26/10 5/5/9
f 7/7/13 27/28/14 6/6/11
f 27/28/14 26/27/12 6/6/11
f 8/8/15 28/29/16 7/7/13
f 28/29/16 27/28/14 7/7/13
f 9/9/17 29/30/18 8/8/15
f 29/30/18 28/29/16 8/8/15
f 10/10/19 30/31/20 9/9/17
f 30/31/20 29/30/18 9/9/17
f 11/11/21 31/32/22 10/10/19
f 31/32/22 30/31/20 10/10/19
f 12/12/23 32/33/24 11/11/21
f 32/33/24 31/32/22 11/11/21
f 13/13/25 33/34/26 12/12/23
f 33/34/26 32/33/24 12/12/23
f 14/14/27 34/35/28 13/13/25
f 34/35/28 33/34/26 13/13/25
f 15/15/29 35/36/30 14/14/27
f 35/36/30 34/35/28 14/14/27
f 16/16/31 36/37/32 15/15/29
f 36/37/32 35/36/30 15/15/29
f 17/17/33 37/38/34 16/16/31
f 37/38/34 36/37/32 16/16/31
f 18/18/35 38/39/36 17/17/33
f 38/39/36 37/38/34 17/17/33
f 19/19/37 39/40/38 18/18/35
f 39/40/38 38/39/36 18/18/35
f 20/20/39 40/41/40 19/19/37
f 40/41/40 39/40/38 19/19/37
f 1/21/3 21/42/4 20/20/39
f 21/42/4 40/41/40 20/20/39
f 22/23/41 42/44/42 21/22/43
f 42/44/42 41/43/44 21/22/43
f 23/24/45 43/45/46 22/23/41
f 43/45/46 42/44/42 22/23/41
f 24/25/47 44/46/48 23/24/45
f 44/46/48 43/45/46 23/24/45
f 25/26/49 45/47/50 24/25/47
f 45/47/50 44/46/48 24/25/47
f 26/27/51 46/48/52 25/26/49
f 46/48/52 45/47/50 25/26/49
f 27/28/53 47/49/54 26/27/51
f 47/49/54 46/48/52 26/27/51
f 28/29/55 48/50/56 27/28/53
f 48/50/56 47/49/54 27/28/53
f 29/30/57 49/51/58 28/29/55
f 49/51/58 48/50/56 28/29/55
f 30/31/59 50/52/60 29/30/57
f 50/52/60 49/51/58 29/30/57
f 31/32/61 51/53/62 30/31/59
f 51/53/62 50/52/60 30/31/59
f 32/33/63 52/54/64 31/32/61
f 52/54/64 51/53/62 31/32/61
f 33/34/65 53/55/66 32/33/63
f 53/55/66 52/54/64 32/33/63
f 34/35/67 54/56/68 33/34/65
f 54/56/68 53/55/66 33/34/65
f 35/36/69 55/57/70 34/35/67
f 55/57/70 54/56/68 34/35/67
f 36/37/71 56/58/72 35/36/69
f 56/58/72 55/57/70 35/36/69
f 37/38/73 57/59/74 36/37/71
f 57/59/74 56/58/72 36/37/71
f 38/39/75 58/60/76 37/38/73
f 58/60/76 57/59/74 37/38/73
f 39/40/77 59/61/78 38/39/75
f 59/61/78 58/60/76 38/39/75
f 40/41/79 60/62/80 39/40/77
f 60/62/80 59/61/78 39/40/77
f 21/42/43 41/63/44 40/41/79
f 41/63/44 60/62/80 40/41/79
f 42/44/81 62/65/82 41/43/83
f 62/65/82 61/64/84 41/43/83
f 43/45/85 63/66/86 42/44/81
f 63/66/86 62/65/82 42/44/81
f 44/46/87 64/67/88 43/45/85
f 64/67/88 63/66/86 43/45/85
f 45/47/89 65/68/90 44/46/87
f 65/68/90 64/67/88 44/46/87
f 46/48/91 66/69/92 45/47/89
f 66/69/92 65/68/90 45/47/89
f 47/49/93 67/70/94 46/48/91
f 67/70/94 66/69/92 46/48/91
f 48/50/95 68/71/96 47/49/93
f 68/71/96 67/70/94 47/49/93
f 49/51/97 69/72/98 48/50/95
f 69/72/98 68/71/96 48/50/95
f 50/52/99 70/73/100 49/51/97
f 70/73/100 69/72/98 49/51/97
f 51/53/101 71/74/102 50/52/99
f 71/74/102 70/73/100 50/52/99
f 52/54/103 72/75/104 51/53/101
f 72/75/104 71/74/102 51/53/101
f 53/55/105 73/76/106 52/54/103
f 73/76/106 72/75/104 52/54/103
f 54/56/107 74/77/108 53/55/105
f 74/77/108 73/76/106 53/55/105
f 55/57/109 75/78/110 54/56/107
f 75/78/110 74/77/108 54/56/107
f 56/58/111 76/79/112 55/57/109
f 76/79/112 75/78/110 55/57/109
f 57/59/113 77/80/114 56/58/111
f 77/80/114 76/79/112 56/58/111
f 58/60/115 78/81/116 57/59/113
f 78/81/116 77/80/114 57/59/113
f 59/61/117 79/82/118 58/60/115
f 79/82/118 78/81/116 58/60/115
f 60/62/119 80/83/120 59/61/117
f 80/83/120 79/82/118 59/61/117
f 41/63/83 61/84/84 60/62/119
f 61/84/84 80/83/120 60/62/119
f 62/65/121 2/86/122 61/64/123
f 2/86/122 1/85/124 61/64/123
f 63/66/125 3/87/126 62/65/121
f 3/87/126 2/86/122 62/65/121
f 64/67/127 4/88/128 63/66/125
f 4/88/128 3/87/126 63/66/125
f 65/68/129 5/89/130 64/67/127
f 5/89/130 4/88/128 64/67/127
f 66/69/131 6/90/132 65/68/129
f 6/90/132 5/89/130 65/68/129
f 67/70/133 7/91/134 66/69/131
f 7/91/134 6/90/132 66/69/131
f 68/71/135 8/92/136 67/70/133
f 8/92/136 7/91/134 67/70/133
f 69/72/137 9/93/138 68/71/135
f 9/93/138 8/92/136 68/71/135
f 70/73/139 10/94/140 69/72/137
f 10/94/140 9/93/138 69/72/137
f 71/74/141 11/95/142 70/73/139
f 11/95/142 10/94/140 70/73/139
f 72/75/143 12/96/144 71/74/141
f 12/96/144 11/95/142 71/74/141
f 73/76/145 13/97/146 72/75/143
f 13/97/146 12/96/144 72/75/143
f 74/77/147 14/98/148 73/76/145
f 14/98/148 13/97/146 73/76/145
f 75/78/149 15/99/150 74/77/147
f 15/99/150 14/98/148 74/77/147
f 76/79/151 16/100/152 75/78/149
f 16/100/152 15/99/150 75/78/149
f 77/80/153 17/101/154 76/79/151
f 17/101/154 16/100/152 76/79/151
f 78/81/155 18/102/156 77/80/153
f 18/102/156 17/101/154 77/80/153
f 79/82/157 19/103/158 78/81/155
f 19/103/158 18/102/156 78/81/155
f 80/83/159 20/104/160 79/82/157
f 20/104/160 19/103/158 79/82/157
f 61/84/123 1/105/124 80/83/159
f 1/105/124 20/104/160 80/83/159
